<?xml version="1.0" standalone="no"?>
<!DOCTYPE svg PUBLIC "-//W3C//DTD SVG 20010904//EN"
 "http://www.w3.org/TR/2001/REC-SVG-20010904/DTD/svg10.dtd">
<svg version="1.0" xmlns="http://www.w3.org/2000/svg"
 width="270.000000pt" height="270.000000pt" viewBox="0 0 270.000000 270.000000"
 preserveAspectRatio="xMidYMid meet">
<metadata>
Created by potrace 1.14, written by Peter Selinger 2001-2017
</metadata>
<g transform="translate(0.000000,270.000000) scale(0.100000,-0.100000)"
fill="#000000" stroke="none">
<path d="M44 2155 c-3 -8 -3 -18 0 -24 4 -6 106 -10 262 -10 141 0 258 -2 261
-4 7 -8 6 -791 -1 -824 -6 -28 0 -36 103 -126 347 -307 462 -376 629 -377 130
0 237 40 442 168 142 89 450 301 450 311 0 12 -33 106 -39 111 -3 3 -7 12 -9
20 -7 41 -96 259 -103 254 -5 -3 -6 1 -3 9 7 19 -40 111 -71 143 -13 13 -32
24 -41 24 -19 0 -765 304 -800 325 -32 20 -1073 20 -1080 0z m706 -47 c0 -5
-5 -6 -12 -2 -7 5 -8 3 -3 -6 6 -10 10 -10 19 3 9 11 31 15 96 15 47 0 93 -4
104 -10 13 -7 16 -7 12 1 -5 7 5 11 29 11 31 0 36 -3 31 -17 -6 -17 -5 -17 7
-1 13 17 32 17 78 3 10 -4 19 -11 19 -16 0 -6 5 -7 10 -4 6 3 10 1 10 -5 0 -6
4 -8 10 -5 5 3 20 0 32 -7 13 -7 26 -11 31 -10 4 1 7 -4 7 -12 0 -7 8 -20 18
-27 14 -11 15 -11 5 1 -17 18 -17 36 0 22 6 -6 14 -10 17 -9 3 0 26 -8 53 -18
35 -13 47 -23 48 -39 1 -17 2 -17 6 -3 6 21 12 21 41 1 12 -8 22 -12 22 -8 0
5 5 3 12 -4 7 -7 20 -12 30 -12 10 0 18 -7 18 -17 0 -15 2 -16 10 -3 8 12 10
12 10 -5 0 -17 2 -17 10 -5 7 11 10 11 10 2 0 -7 4 -11 9 -8 12 8 42 -4 36
-14 -3 -5 5 -6 17 -2 21 5 22 4 8 -13 -14 -17 -13 -18 4 -8 21 11 56 6 56 -9
0 -5 4 -7 9 -3 5 3 15 0 23 -7 7 -7 19 -13 26 -14 26 -2 32 -4 31 -11 -3 -20
2 -27 10 -14 7 11 13 12 23 4 7 -6 25 -13 40 -17 20 -4 25 -11 21 -26 -3 -11
-9 -17 -14 -14 -5 3 -6 -3 -2 -12 5 -14 3 -16 -12 -11 -15 6 -16 5 -5 -8 10
-12 8 -23 -9 -58 -12 -24 -21 -48 -21 -53 0 -5 -5 -26 -11 -47 -7 -27 -15 -37
-25 -33 -12 5 -12 2 -4 -15 9 -15 8 -29 0 -52 -6 -18 -14 -43 -16 -57 -3 -13
-6 -26 -8 -27 -4 -5 -61 141 -58 150 1 4 -2 7 -7 7 -8 0 -24 41 -25 65 -1 6
-4 12 -7 15 -15 13 -69 128 -66 141 2 8 2 11 0 7 -9 -15 -25 -8 -19 8 3 8 2
13 -3 10 -5 -3 -20 5 -34 18 -14 13 -28 21 -31 18 -3 -3 -6 1 -6 9 0 11 -2 11
-9 1 -7 -12 -25 -19 -56 -21 -7 -1 -7 -4 0 -9 22 -16 14 -31 -13 -26 -17 3
-22 1 -14 -4 10 -7 9 -16 -4 -47 -12 -29 -18 -35 -25 -24 -5 9 -9 10 -9 2 0
-6 4 -14 9 -17 5 -3 7 -15 4 -27 -5 -16 -8 -18 -15 -7 -6 9 -8 6 -7 -12 3 -42
-1 -61 -11 -55 -5 3 -10 15 -10 26 0 11 -9 39 -20 61 -24 50 -24 54 -6 39 11
-9 16 -9 22 0 5 8 3 9 -6 4 -10 -6 -12 -4 -7 9 6 14 3 15 -14 5 -24 -13 -40
-3 -19 12 13 9 12 10 -2 6 -9 -3 -24 3 -34 14 -17 18 -10 25 19 20 5 -1 6 3 2
9 -4 7 -12 7 -25 0 -13 -7 -21 -7 -25 1 -4 6 -13 8 -20 5 -10 -3 -12 2 -9 20
2 13 0 24 -6 24 -5 0 -10 -6 -10 -12 0 -10 -2 -10 -9 0 -4 8 -11 13 -15 13
-20 -3 -26 1 -27 17 0 9 -3 12 -5 7 -2 -6 -22 -9 -44 -7 -27 3 -38 8 -33 16 5
8 3 8 -8 0 -8 -6 -23 -8 -33 -5 -24 9 -118 -8 -110 -20 3 -5 1 -9 -4 -9 -5 0
-14 10 -21 23 -6 12 -10 14 -7 5 7 -25 -21 -30 -36 -6 -11 17 -16 19 -23 8 -6
-9 -4 -11 5 -5 10 6 12 4 7 -9 -4 -10 -3 -15 3 -11 6 3 10 1 10 -4 0 -6 -2
-11 -4 -11 -2 0 -13 -3 -23 -7 -10 -3 -15 -3 -11 2 9 10 -10 35 -26 35 -6 0
-4 -5 6 -10 25 -15 17 -30 -39 -83 -28 -26 -58 -61 -66 -78 l-14 -31 -1 46
c-1 41 1 46 21 47 22 2 22 2 1 6 -21 4 -22 9 -22 141 0 112 3 141 17 157 14
17 14 18 0 7 -14 -10 -16 -8 -17 18 0 21 4 30 15 30 10 0 13 -6 9 -17 -5 -15
-4 -15 9 1 8 11 15 17 15 14 0 -4 12 -3 28 1 30 9 52 4 52 -11z m1188 -355
c10 -9 10 -18 2 -32 -7 -14 -7 -22 2 -27 6 -4 8 -3 5 3 -4 6 1 19 11 30 9 10
14 14 9 7 -7 -11 0 -44 13 -54 12 -10 40 -91 35 -101 -4 -5 -1 -9 5 -9 6 0 8
-4 5 -10 -3 -5 -1 -10 5 -10 6 0 9 -4 5 -9 -3 -5 0 -13 6 -16 5 -4 8 -14 5
-22 -4 -9 -2 -11 6 -7 8 5 9 2 5 -9 -3 -10 -2 -17 3 -17 6 0 9 -3 9 -7 -1 -5
0 -11 1 -15 1 -5 3 -11 5 -15 1 -5 5 -15 8 -23 19 -44 35 -99 30 -104 -4 -3
-1 -6 5 -6 7 0 12 -4 12 -8 0 -10 -94 -79 -97 -72 -1 3 -9 -4 -18 -15 -9 -11
-14 -14 -10 -7 3 6 1 12 -4 12 -6 0 -11 -7 -11 -15 0 -9 -18 -24 -40 -34 -22
-10 -38 -20 -36 -22 3 -2 -20 -21 -49 -41 -49 -34 -56 -36 -65 -20 -10 15 -10
14 -5 -4 4 -17 -5 -27 -55 -58 -33 -20 -65 -34 -72 -30 -7 4 -8 3 -4 -4 4 -7
-21 -26 -66 -49 -89 -46 -96 -49 -80 -32 15 16 16 29 2 29 -5 0 -9 -3 -8 -7 4
-21 -15 -40 -35 -36 -18 4 -19 3 -7 -6 13 -9 12 -11 -5 -12 -11 -1 -26 -2 -32
-2 -7 1 -13 -4 -13 -9 0 -6 -9 -8 -20 -5 -11 3 -20 1 -20 -3 0 -5 -13 -8 -30
-8 -18 1 -27 5 -23 12 3 6 0 5 -8 -1 -15 -15 -63 -18 -54 -4 3 5 1 13 -5 16
-6 4 -9 1 -8 -7 4 -19 -43 -13 -95 11 -23 10 -50 22 -59 25 -11 3 -16 13 -13
28 4 20 3 21 -8 7 -11 -15 -16 -14 -50 8 -22 14 -35 28 -31 35 4 7 3 8 -4 4
-12 -7 -16 -5 -72 43 -29 26 -33 32 -20 41 8 5 10 10 5 10 -6 0 -15 -4 -21
-10 -6 -6 -26 6 -56 33 -26 23 -74 66 -107 96 -34 29 -58 57 -55 62 3 5 9 7
14 4 5 -3 12 0 16 6 4 8 3 9 -4 5 -7 -4 -12 -2 -12 5 0 7 -6 4 -14 -6 -11 -16
-17 -17 -29 -7 -10 9 -14 34 -14 91 l0 80 29 -45 c16 -25 25 -50 22 -56 -4 -7
-2 -8 4 -4 6 4 32 -9 57 -29 26 -19 51 -33 55 -30 5 3 7 -3 5 -13 -1 -9 3 -26
11 -37 8 -10 14 -14 14 -9 0 6 -5 15 -11 21 -8 8 -8 13 0 17 6 4 11 2 11 -4 0
-6 4 -9 8 -6 4 3 26 0 48 -5 48 -12 154 -17 148 -7 -5 7 41 12 49 6 2 -2 11 3
20 10 9 8 22 10 28 6 8 -4 9 -3 5 4 -9 15 -1 15 27 0 19 -9 20 -9 11 3 -9 11
-9 17 2 27 8 7 14 10 14 8 0 -3 23 18 50 46 l50 51 0 -31 c0 -19 -7 -35 -17
-41 -13 -8 -14 -10 -4 -11 8 0 12 -3 8 -6 -3 -3 5 -16 19 -29 13 -12 24 -28
24 -34 0 -7 5 -9 11 -5 6 3 25 -7 42 -24 39 -37 101 -72 127 -72 10 0 24 -8
30 -17 9 -15 10 -14 4 7 -3 14 -3 22 1 18 8 -8 98 45 138 80 15 14 27 22 27
16 0 -5 10 2 21 16 11 14 17 18 13 10 -4 -8 5 -3 20 12 15 15 29 35 31 45 2
10 4 19 4 21 1 1 1 5 0 8 -1 8 22 24 34 24 5 0 5 -5 1 -12 -4 -7 -3 -8 4 -4 6
4 9 13 5 22 -4 12 -8 12 -21 2 -16 -14 -16 -10 3 62 3 14 7 32 9 39 1 8 8 17
16 19 9 3 9 6 0 12 -13 8 27 155 61 221 14 28 15 39 6 50 -13 15 18 -7 41 -28z"/>
<path d="M710 2101 c0 -6 4 -13 10 -16 6 -3 7 1 4 9 -7 18 -14 21 -14 7z"/>
<path d="M836 2098 c3 -4 0 -8 -7 -8 -7 0 -10 -2 -7 -5 7 -7 38 5 38 14 0 4
-7 8 -15 8 -8 0 -12 -4 -9 -9z"/>
<path d="M886 2097 c3 -10 9 -15 12 -12 3 3 0 11 -7 18 -10 9 -11 8 -5 -6z"/>
<path d="M775 2091 c-3 -5 0 -13 6 -17 8 -5 9 -3 4 6 -6 10 -4 12 9 7 10 -4
15 -3 11 3 -8 13 -22 13 -30 1z"/>
<path d="M915 2089 c-4 -6 -5 -12 -2 -15 2 -3 7 2 10 11 7 17 1 20 -8 4z"/>
<path d="M934 2079 c-4 -7 -3 -9 4 -5 6 3 13 -2 15 -11 4 -16 5 -16 6 -1 1 21
-15 32 -25 17z"/>
<path d="M990 2080 c0 -5 5 -10 10 -10 6 0 10 5 10 10 0 6 -4 10 -10 10 -5 0
-10 -4 -10 -10z"/>
<path d="M666 2067 c-16 -12 -16 -14 -3 -14 9 0 18 6 21 14 3 7 4 13 3 13 -2
0 -11 -6 -21 -13z"/>
<path d="M738 2062 c-4 -12 -1 -25 4 -29 7 -4 8 -1 3 7 -6 9 -4 12 7 8 8 -4
15 0 15 8 0 7 -4 11 -8 8 -4 -2 -9 1 -11 8 -3 7 -7 2 -10 -10z"/>
<path d="M804 2058 c-4 -6 -3 -8 4 -4 5 3 13 0 15 -6 3 -8 6 -6 6 5 1 19 -14
23 -25 5z"/>
<path d="M890 2060 c0 -5 5 -10 11 -10 5 0 7 5 4 10 -3 6 -8 10 -11 10 -2 0
-4 -4 -4 -10z"/>
<path d="M971 2054 c0 -11 3 -14 6 -6 3 7 2 16 -1 19 -3 4 -6 -2 -5 -13z"/>
<path d="M1036 2053 c-4 -11 -1 -11 14 -3 24 13 25 17 5 17 -8 0 -16 -6 -19
-14z"/>
<path d="M1114 2062 c4 -3 14 -7 22 -8 9 -1 13 0 10 4 -4 3 -14 7 -22 8 -9 1
-13 0 -10 -4z"/>
<path d="M710 2043 c0 -6 8 -17 18 -24 16 -13 16 -13 2 6 -8 11 -16 22 -17 24
-2 2 -3 0 -3 -6z"/>
<path d="M855 2040 c-3 -6 1 -13 9 -16 9 -3 13 -11 9 -18 -3 -6 -2 -7 2 -3 16
14 14 36 -3 30 -10 -4 -13 -2 -8 5 4 7 5 12 2 12 -3 0 -8 -5 -11 -10z"/>
<path d="M935 2040 c6 -9 2 -10 -16 -5 -13 4 -22 6 -19 3 34 -27 38 -28 43
-14 4 9 1 18 -5 22 -7 5 -8 2 -3 -6z"/>
<path d="M1075 2041 c3 -6 -3 -14 -12 -20 -10 -6 -13 -11 -7 -11 12 0 34 20
34 32 0 4 -5 8 -11 8 -5 0 -8 -4 -4 -9z"/>
<path d="M999 2028 c15 -21 31 -23 31 -6 0 6 -3 8 -7 5 -3 -4 -13 -1 -22 6
-14 11 -14 10 -2 -5z"/>
<path d="M1202 2020 c-15 -25 -15 -30 0 -30 6 0 8 3 5 7 -4 3 -2 12 5 20 6 7
9 15 7 18 -3 2 -10 -5 -17 -15z"/>
<path d="M680 2015 c-11 -13 -10 -14 5 -9 14 6 16 4 10 -6 -5 -8 -4 -11 3 -6
6 4 9 13 5 21 -7 19 -8 19 -23 0z"/>
<path d="M762 2018 c-7 -7 -12 -17 -12 -22 0 -6 5 -3 11 7 6 9 14 15 20 12 5
-4 9 -1 9 4 0 14 -13 14 -28 -1z"/>
<path d="M960 2015 c-7 -9 -11 -17 -9 -20 3 -2 10 5 17 15 14 24 10 26 -8 5z"/>
<path d="M1107 2013 c5 -12 3 -14 -7 -8 -9 5 -11 4 -6 -4 6 -9 11 -9 22 0 17
14 17 16 0 22 -11 4 -13 1 -9 -10z"/>
<path d="M1278 2013 c7 -3 16 -2 19 1 4 3 -2 6 -13 5 -11 0 -14 -3 -6 -6z"/>
<path d="M635 1999 c-11 -16 -1 -19 13 -3 7 8 8 14 3 14 -5 0 -13 -5 -16 -11z"/>
<path d="M1135 1999 c-6 -8 -4 -10 5 -4 10 6 12 4 6 -11 -6 -15 -5 -17 5 -6 9
9 10 15 2 23 -8 8 -13 7 -18 -2z"/>
<path d="M787 1986 c-4 -10 -1 -13 8 -9 8 3 12 9 9 14 -7 12 -11 11 -17 -5z"/>
<path d="M973 1985 c0 -7 6 -11 14 -8 7 3 13 6 13 8 0 2 -6 5 -13 8 -8 3 -14
-1 -14 -8z"/>
<path d="M1082 1984 c10 -10 20 -16 22 -13 3 3 -5 11 -17 18 -21 13 -21 12 -5
-5z"/>
<path d="M1231 1991 c-8 -5 -9 -11 -3 -15 5 -3 12 1 16 9 6 17 6 18 -13 6z"/>
<path d="M1330 1996 c0 -2 7 -9 15 -16 9 -7 15 -8 15 -2 0 5 -7 12 -15 16 -8
3 -15 4 -15 2z"/>
<path d="M650 1986 c0 -2 7 -7 16 -10 8 -3 12 -2 9 4 -6 10 -25 14 -25 6z"/>
<path d="M700 1975 c-11 -13 -10 -14 4 -9 9 3 16 10 16 15 0 13 -6 11 -20 -6z"/>
<path d="M836 1975 c-11 -8 -15 -15 -9 -15 7 0 15 5 18 10 4 6 11 8 16 5 5 -4
9 -1 9 4 0 15 -11 13 -34 -4z"/>
<path d="M1300 1980 c-9 -6 -10 -10 -3 -10 6 0 15 5 18 10 8 12 4 12 -15 0z"/>
<path d="M1026 1964 c-5 -14 -4 -15 9 -4 17 14 19 20 6 20 -5 0 -12 -7 -15
-16z"/>
<path d="M750 1961 c0 -5 8 -15 18 -22 15 -12 16 -12 5 2 -7 9 -10 19 -6 22 3
4 1 7 -5 7 -7 0 -12 -4 -12 -9z"/>
<path d="M1054 1958 c-5 -7 -2 -8 6 -3 10 6 12 4 6 -10 -5 -15 -4 -16 9 -5 19
15 19 16 0 23 -8 4 -17 1 -21 -5z"/>
<path d="M1335 1960 c6 -10 4 -12 -8 -7 -21 8 -22 3 -3 -12 10 -9 15 -8 19 3
4 9 1 18 -5 22 -7 5 -8 2 -3 -6z"/>
<path d="M676 1947 c3 -10 9 -15 12 -12 3 3 0 11 -7 18 -10 9 -11 8 -5 -6z"/>
<path d="M874 1952 c4 -7 1 -12 -6 -12 -8 0 -6 -5 5 -11 10 -6 21 -8 24 -5 4
3 1 6 -6 6 -7 0 -10 4 -6 9 3 5 0 13 -6 17 -8 4 -9 3 -5 -4z"/>
<path d="M966 1943 c-6 -14 -5 -15 5 -6 7 7 10 15 7 18 -3 3 -9 -2 -12 -12z"/>
<path d="M1140 1954 c0 -13 18 -39 24 -34 2 3 -2 14 -10 24 -8 11 -14 16 -14
10z"/>
<path d="M1205 1950 c-16 -7 -17 -9 -3 -9 9 -1 20 4 23 9 7 11 7 11 -20 0z"/>
<path d="M1278 1953 c7 -3 16 -2 19 1 4 3 -2 6 -13 5 -11 0 -14 -3 -6 -6z"/>
<path d="M1399 1948 c15 -21 31 -23 31 -6 0 6 -3 8 -7 5 -3 -4 -13 -1 -22 6
-14 11 -14 10 -2 -5z"/>
<path d="M639 1948 c-6 -21 -5 -37 2 -32 5 3 7 9 4 14 -3 4 1 11 7 13 10 4 10
6 1 6 -7 1 -13 0 -14 -1z"/>
<path d="M830 1941 c0 -6 4 -13 10 -16 6 -3 7 1 4 9 -7 18 -14 21 -14 7z"/>
<path d="M920 1935 c-11 -13 -10 -14 5 -9 14 6 16 4 10 -6 -5 -8 -4 -11 3 -6
6 4 9 13 5 21 -7 19 -8 19 -23 0z"/>
<path d="M990 1946 c0 -2 7 -7 16 -10 8 -3 12 -2 9 4 -6 10 -25 14 -25 6z"/>
<path d="M1244 1939 c-3 -6 -1 -16 5 -22 9 -9 10 -7 5 7 -6 15 -4 17 6 11 9
-5 11 -4 6 3 -9 15 -13 15 -22 1z"/>
<path d="M1360 1935 c-7 -9 -11 -17 -9 -20 3 -2 10 5 17 15 14 24 10 26 -8 5z"/>
<path d="M717 1927 c-3 -8 1 -14 8 -14 7 0 11 6 8 14 -3 7 -6 13 -8 13 -2 0
-5 -6 -8 -13z"/>
<path d="M794 1932 c4 -7 1 -12 -6 -12 -8 0 -5 -5 5 -11 14 -8 22 -8 30 1 9 8
7 9 -7 4 -13 -5 -17 -4 -12 4 3 6 1 14 -5 18 -8 4 -9 3 -5 -4z"/>
<path d="M1036 1927 c3 -10 9 -15 12 -12 3 3 0 11 -7 18 -10 9 -11 8 -5 -6z"/>
<path d="M1444 1919 c-3 -6 -2 -15 4 -21 6 -6 12 -6 17 3 6 8 4 10 -5 4 -10
-6 -12 -4 -7 8 7 19 2 23 -9 6z"/>
<path d="M674 1909 c-3 -6 -1 -16 6 -22 10 -9 11 -9 5 2 -4 8 -2 17 6 22 9 6
10 9 2 9 -6 0 -15 -5 -19 -11z"/>
<path d="M759 1918 c-5 -18 -6 -38 -1 -34 7 8 12 36 6 36 -2 0 -4 -1 -5 -2z"/>
<path d="M1045 1898 l-20 -21 23 12 c12 6 22 16 22 21 0 13 -2 12 -25 -12z"/>
<path d="M1381 1903 c7 -10 15 -20 16 -22 2 -2 3 3 3 11 0 9 -7 19 -16 22 -15
6 -15 4 -3 -11z"/>
<path d="M890 1906 c0 -2 7 -7 16 -10 8 -3 12 -2 9 4 -6 10 -25 14 -25 6z"/>
<path d="M1076 1893 c-6 -14 -5 -15 5 -6 7 7 10 15 7 18 -3 3 -9 -2 -12 -12z"/>
<path d="M1150 1896 c7 -7 13 -7 20 0 6 6 3 10 -10 10 -13 0 -16 -4 -10 -10z"/>
<path d="M1495 1899 c-6 -8 -4 -10 5 -4 10 6 12 4 6 -11 -6 -15 -5 -17 5 -6 9
9 10 15 2 23 -8 8 -13 7 -18 -2z"/>
<path d="M855 1890 c-3 -6 1 -7 9 -4 18 7 21 14 7 14 -6 0 -13 -4 -16 -10z"/>
<path d="M1230 1890 c-9 -6 -10 -10 -3 -10 6 0 15 5 18 10 8 12 4 12 -15 0z"/>
<path d="M640 1870 c-6 -11 -8 -20 -6 -20 3 0 10 9 16 20 6 11 8 20 6 20 -3 0
-10 -9 -16 -20z"/>
<path d="M708 1883 c6 -2 18 -2 25 0 6 3 1 5 -13 5 -14 0 -19 -2 -12 -5z"/>
<path d="M1118 1883 c7 -3 16 -2 19 1 4 3 -2 6 -13 5 -11 0 -14 -3 -6 -6z"/>
<path d="M1188 1883 c7 -3 16 -2 19 1 4 3 -2 6 -13 5 -11 0 -14 -3 -6 -6z"/>
<path d="M1270 1870 c-8 -15 -8 -18 3 -14 8 3 14 11 14 19 0 20 -4 19 -17 -5z"/>
<path d="M1350 1881 c0 -6 4 -13 10 -16 6 -3 7 1 4 9 -7 18 -14 21 -14 7z"/>
<path d="M1550 1881 c0 -5 8 -15 18 -22 15 -12 16 -12 5 2 -7 9 -10 19 -6 22
3 4 1 7 -5 7 -7 0 -12 -4 -12 -9z"/>
<path d="M1450 1870 c0 -5 -5 -9 -11 -7 -6 1 -14 -5 -16 -13 -4 -12 -3 -12 5
-2 5 8 13 13 18 12 5 -1 10 3 12 9 2 6 1 11 -2 11 -3 0 -6 -4 -6 -10z"/>
<path d="M682 1858 c-15 -15 -15 -28 0 -28 6 0 8 3 5 7 -4 3 -2 12 4 20 14 16
7 17 -9 1z"/>
<path d="M1211 1867 c2 -1 13 -9 24 -17 19 -14 19 -14 6 3 -7 9 -18 17 -24 17
-6 0 -8 -1 -6 -3z"/>
<path d="M1321 1856 c-9 -10 -8 -15 3 -19 9 -4 18 -1 22 5 5 7 2 8 -6 3 -10
-6 -12 -4 -7 8 8 21 3 22 -12 3z"/>
<path d="M1387 1859 c7 -7 15 -10 18 -7 3 3 -2 9 -12 12 -14 6 -15 5 -6 -5z"/>
<path d="M1480 1860 c8 -5 20 -10 25 -10 6 0 3 5 -5 10 -8 5 -19 10 -25 10 -5
0 -3 -5 5 -10z"/>
<path d="M1627 1853 c5 -12 3 -14 -7 -8 -8 5 -11 4 -6 -3 4 -6 13 -9 22 -5 11
4 12 9 3 19 -15 19 -20 18 -12 -3z"/>
<path d="M1520 1851 c0 -6 4 -13 10 -16 6 -3 7 1 4 9 -7 18 -14 21 -14 7z"/>
<path d="M1214 1842 c7 -11 -6 -17 -29 -12 -5 1 -4 -4 3 -11 10 -11 15 -10 28
3 12 12 13 17 3 23 -8 5 -10 4 -5 -3z"/>
<path d="M1360 1835 c-7 -9 -8 -15 -2 -15 5 0 12 7 16 15 3 8 4 15 2 15 -2 0
-9 -7 -16 -15z"/>
<path d="M1555 1830 c-8 -13 3 -30 18 -30 8 0 7 3 -2 9 -7 5 -10 14 -7 20 4 6
5 11 2 11 -3 0 -8 -4 -11 -10z"/>
<path d="M1580 1836 c0 -2 7 -7 16 -10 8 -3 12 -2 9 4 -6 10 -25 14 -25 6z"/>
<path d="M1300 1820 c8 -5 20 -10 25 -10 6 0 3 5 -5 10 -8 5 -19 10 -25 10 -5
0 -3 -5 5 -10z"/>
<path d="M1713 1815 c0 -7 7 -11 15 -7 11 4 13 1 7 -8 -5 -9 -4 -11 3 -6 16
10 15 14 -6 25 -14 7 -19 6 -19 -4z"/>
<path d="M640 1811 c0 -6 4 -13 10 -16 6 -3 7 1 4 9 -7 18 -14 21 -14 7z"/>
<path d="M1275 1811 c3 -5 0 -11 -7 -13 -7 -3 -5 -7 6 -11 9 -4 15 -3 11 2 -3
5 0 11 7 13 7 3 5 7 -6 11 -9 4 -15 3 -11 -2z"/>
<path d="M1597 1793 c3 -7 6 -13 8 -13 2 0 5 6 8 13 3 8 -1 14 -8 14 -7 0 -11
-6 -8 -14z"/>
<path d="M695 1790 c-4 -6 -10 -8 -14 -6 -4 3 -8 -1 -8 -9 0 -13 4 -12 19 2
18 16 22 23 14 23 -3 0 -8 -5 -11 -10z"/>
<path d="M1749 1783 c-13 -16 -12 -17 4 -4 9 7 17 15 17 17 0 8 -8 3 -21 -13z"/>
<path d="M1642 1778 c-15 -15 -15 -28 0 -28 6 0 8 3 5 7 -4 3 -2 12 4 20 14
16 7 17 -9 1z"/>
<path d="M1690 1779 c0 -5 4 -8 9 -4 6 3 14 -3 20 -12 6 -10 11 -13 11 -7 0
12 -20 34 -32 34 -4 0 -8 -5 -8 -11z"/>
<path d="M1780 1779 c0 -9 31 -21 38 -14 3 3 0 5 -7 5 -7 0 -10 4 -7 8 3 5 -1
9 -9 9 -8 0 -15 -4 -15 -8z"/>
<path d="M1310 1760 c0 -5 5 -10 10 -10 6 0 10 5 10 10 0 6 -4 10 -10 10 -5 0
-10 -4 -10 -10z"/>
<path d="M1365 1759 c-4 -6 -5 -12 -2 -15 2 -3 7 2 10 11 7 17 1 20 -8 4z"/>
<path d="M1577 1749 c7 -7 15 -10 18 -7 3 3 -2 9 -12 12 -14 6 -15 5 -6 -5z"/>
<path d="M1680 1749 c0 -5 -4 -7 -10 -4 -6 4 -7 -1 -3 -11 4 -11 8 -13 11 -6
2 7 8 10 13 7 5 -4 6 1 3 9 -7 18 -14 21 -14 5z"/>
<path d="M1760 1736 c0 -8 4 -17 9 -20 5 -4 7 3 4 14 -6 23 -13 26 -13 6z"/>
<path d="M1311 1707 c-13 -21 -12 -21 5 -5 10 10 16 20 13 22 -3 3 -11 -5 -18
-17z"/>
<path d="M1630 1725 c0 -5 5 -17 10 -25 5 -8 10 -10 10 -5 0 6 -5 17 -10 25
-5 8 -10 11 -10 5z"/>
<path d="M1713 1723 c4 -3 1 -13 -6 -22 -11 -14 -10 -14 6 -2 20 15 22 31 5
31 -6 0 -8 -3 -5 -7z"/>
<path d="M1796 1713 c-4 -9 -3 -20 1 -24 4 -4 9 3 9 17 2 28 -1 31 -10 7z"/>
<path d="M1670 1690 c-11 -7 -11 -10 -2 -10 7 0 10 -4 7 -10 -4 -6 1 -7 11 -3
11 4 13 8 6 11 -7 2 -10 8 -6 13 7 11 3 11 -16 -1z"/>
<path d="M1747 1686 c-5 -11 -3 -15 5 -10 7 5 9 2 6 -8 -4 -8 -1 -15 7 -15 8
0 11 7 7 15 -4 11 -1 13 8 7 9 -5 11 -4 6 4 -4 6 -11 9 -16 6 -4 -3 -10 0 -12
7 -3 7 -7 5 -11 -6z"/>
<path d="M1616 1682 c-3 -5 1 -9 9 -9 8 0 12 4 9 9 -3 4 -7 8 -9 8 -2 0 -6 -4
-9 -8z"/>
<path d="M1675 1610 c-4 -6 1 -7 11 -3 13 5 15 3 9 -7 -5 -9 -4 -11 4 -6 6 4
9 12 6 17 -8 12 -22 12 -30 -1z"/>
<path d="M1754 1596 c1 -8 5 -18 8 -22 4 -3 5 1 4 10 -1 8 -5 18 -8 22 -4 3
-5 -1 -4 -10z"/>
<path d="M1675 1570 c-3 -6 1 -7 9 -4 18 7 21 14 7 14 -6 0 -13 -4 -16 -10z"/>
<path d="M1715 1561 c3 -6 -3 -14 -12 -20 -10 -6 -13 -11 -7 -11 12 0 34 20
34 32 0 4 -5 8 -11 8 -5 0 -8 -4 -4 -9z"/>
<path d="M1715 1511 c4 -8 2 -17 -6 -22 -9 -6 -10 -9 -2 -9 19 0 27 21 13 33
-10 9 -11 9 -5 -2z"/>
<path d="M1713 1455 c0 -8 4 -12 9 -9 5 3 6 10 3 15 -9 13 -12 11 -12 -6z"/>
<path d="M1900 1700 c-9 -6 -10 -10 -3 -10 6 0 15 5 18 10 8 12 4 12 -15 0z"/>
<path d="M1961 1656 c-9 -11 -9 -16 0 -22 7 -4 9 -3 5 4 -3 5 0 12 6 15 7 2
10 7 7 11 -3 4 -12 0 -18 -8z"/>
<path d="M1916 1627 c3 -10 9 -15 12 -12 3 3 0 11 -7 18 -10 9 -11 8 -5 -6z"/>
<path d="M1980 1631 c0 -6 4 -13 10 -16 6 -3 7 1 4 9 -7 18 -14 21 -14 7z"/>
<path d="M1957 1585 c3 -8 9 -12 14 -9 12 7 11 11 -5 17 -10 4 -13 1 -9 -8z"/>
<path d="M1851 1587 c2 -1 13 -9 24 -17 19 -14 19 -14 6 3 -7 9 -18 17 -24 17
-6 0 -8 -1 -6 -3z"/>
<path d="M1913 1583 c4 -6 1 -14 -5 -16 -10 -4 -10 -6 0 -6 7 -1 10 -6 6 -13
-4 -6 -3 -8 4 -5 12 8 10 32 -3 44 -4 4 -5 3 -2 -4z"/>
<path d="M1840 1550 c-6 -11 -8 -20 -6 -20 3 0 10 9 16 20 6 11 8 20 6 20 -3
0 -10 -9 -16 -20z"/>
<path d="M1995 1560 c6 -10 4 -12 -11 -6 -15 6 -17 5 -6 -5 9 -9 15 -10 23 -2
8 8 7 13 -2 18 -8 6 -10 4 -4 -5z"/>
<path d="M1882 1538 c-15 -15 -15 -28 0 -28 6 0 8 3 5 7 -4 3 -2 12 4 20 14
16 7 17 -9 1z"/>
<path d="M1935 1539 c-6 -8 -4 -10 5 -4 10 6 12 4 6 -11 -6 -15 -5 -17 5 -6 9
9 10 15 2 23 -8 8 -13 7 -18 -2z"/>
<path d="M2005 1519 c-4 -6 -4 -13 -1 -16 3 -4 6 -1 6 6 0 7 5 9 12 5 7 -4 8
-3 4 4 -9 15 -13 15 -21 1z"/>
<path d="M1907 1493 c3 -7 9 -10 14 -7 14 8 11 21 -5 21 -8 0 -12 -6 -9 -14z"/>
<path d="M1970 1500 c0 -5 5 -10 10 -10 6 0 10 5 10 10 0 6 -4 10 -10 10 -5 0
-10 -4 -10 -10z"/>
<path d="M1870 1485 c0 -13 20 -35 32 -35 4 0 8 5 8 11 0 5 -4 8 -9 4 -6 -3
-14 3 -20 12 -6 10 -11 13 -11 8z"/>
<path d="M1975 1451 c-3 -5 0 -13 6 -17 8 -5 9 -3 4 6 -6 10 -4 12 9 7 10 -4
15 -3 11 3 -8 13 -22 13 -30 1z"/>
<path d="M1855 1441 c-3 -6 3 -14 13 -20 14 -7 19 -6 19 4 0 7 -7 11 -15 7
-10 -3 -13 -1 -8 6 4 7 5 12 2 12 -3 0 -7 -4 -11 -9z"/>
<path d="M2020 1446 c0 -2 9 -6 20 -9 11 -3 18 -1 14 4 -5 9 -34 13 -34 5z"/>
<path d="M1942 1432 c2 -8 7 -13 12 -12 5 1 13 -4 18 -12 8 -11 9 -11 6 0 -2
8 -7 13 -12 12 -5 -1 -13 4 -18 12 -8 11 -9 11 -6 0z"/>
<path d="M2022 1416 c7 -8 15 -12 17 -11 5 6 -10 25 -20 25 -5 0 -4 -6 3 -14z"/>
<path d="M1830 1400 c0 -5 5 -10 10 -10 6 0 10 5 10 10 0 6 -4 10 -10 10 -5 0
-10 -4 -10 -10z"/>
<path d="M1990 1401 c0 -6 4 -13 10 -16 6 -3 7 1 4 9 -7 18 -14 21 -14 7z"/>
<path d="M1857 1375 c-4 -8 -1 -17 5 -21 7 -5 8 -2 3 6 -6 10 -4 12 10 6 15
-5 16 -4 5 9 -15 19 -16 19 -23 0z"/>
<path d="M1961 1376 c-9 -10 -8 -15 3 -19 9 -4 18 -1 22 5 5 7 2 8 -6 3 -10
-6 -12 -4 -7 8 8 21 3 22 -12 3z"/>
<path d="M2027 1379 c7 -7 15 -10 18 -7 3 3 -2 9 -12 12 -14 6 -15 5 -6 -5z"/>
<path d="M2065 1379 c-4 -6 -5 -12 -2 -15 2 -3 7 2 10 11 7 17 1 20 -8 4z"/>
<path d="M634 1366 c1 -8 5 -18 8 -22 4 -3 5 1 4 10 -1 8 -5 18 -8 22 -4 3 -5
-1 -4 -10z"/>
<path d="M2000 1355 c-7 -9 -8 -15 -2 -15 5 0 12 7 16 15 3 8 4 15 2 15 -2 0
-9 -7 -16 -15z"/>
<path d="M1830 1345 c0 -2 10 -10 23 -16 20 -11 21 -11 8 4 -13 16 -31 23 -31
12z"/>
<path d="M1885 1340 c-3 -6 1 -7 9 -4 18 7 21 14 7 14 -6 0 -13 -4 -16 -10z"/>
<path d="M1931 1347 c2 -1 13 -9 24 -17 19 -14 19 -14 6 3 -7 9 -18 17 -24 17
-6 0 -8 -1 -6 -3z"/>
<path d="M2052 1341 c-11 -7 -11 -9 0 -14 9 -3 15 1 15 9 0 8 -1 14 -1 14 -1
0 -7 -4 -14 -9z"/>
<path d="M1790 1320 c0 -5 5 -10 10 -10 6 0 10 5 10 10 0 6 -4 10 -10 10 -5 0
-10 -4 -10 -10z"/>
<path d="M1917 1316 c-17 -13 -16 -14 2 -19 15 -3 18 -1 14 11 -5 11 -3 13 7
7 9 -5 11 -4 6 3 -9 14 -7 14 -29 -2z"/>
<path d="M1875 1309 c-4 -6 -5 -12 -2 -15 2 -3 7 2 10 11 7 17 1 20 -8 4z"/>
<path d="M635 1300 c3 -5 8 -10 11 -10 2 0 4 5 4 10 0 6 -5 10 -11 10 -5 0 -7
-4 -4 -10z"/>
<path d="M707 1299 c7 -9 10 -19 6 -22 -3 -4 -1 -7 5 -7 17 0 15 16 -5 31 -16
12 -17 12 -6 -2z"/>
<path d="M1217 1295 c-4 -8 -1 -17 5 -21 7 -5 8 -2 3 6 -6 10 -4 12 10 6 15
-5 16 -4 5 9 -15 19 -16 19 -23 0z"/>
<path d="M1962 1298 c-15 -15 -15 -28 -1 -28 5 0 8 4 4 9 -3 6 3 14 12 20 10
6 13 11 8 11 -6 0 -16 -5 -23 -12z"/>
<path d="M2010 1298 c0 -6 3 -8 7 -5 3 4 13 1 22 -6 14 -11 14 -10 2 6 -15 20
-31 22 -31 5z"/>
<path d="M1827 1287 c-3 -8 1 -14 8 -14 7 0 11 6 8 14 -3 7 -6 13 -8 13 -2 0
-5 -6 -8 -13z"/>
<path d="M1755 1271 c-3 -5 0 -13 6 -17 7 -4 9 -3 5 4 -3 5 0 13 6 15 9 4 10
6 1 6 -6 1 -14 -3 -18 -8z"/>
<path d="M1802 1264 c10 -10 20 -16 22 -13 3 3 -5 11 -17 18 -21 13 -21 12 -5
-5z"/>
<path d="M1875 1268 c25 -15 68 -23 45 -9 -8 5 -17 8 -21 5 -4 -2 -10 0 -14 6
-3 5 -12 10 -18 10 -7 0 -3 -6 8 -12z"/>
<path d="M1991 1271 c-8 -5 -9 -11 -3 -15 5 -3 12 1 16 9 6 17 6 18 -13 6z"/>
<path d="M2061 1264 c0 -11 3 -14 6 -6 3 7 2 16 -1 19 -3 4 -6 -2 -5 -13z"/>
<path d="M1195 1260 c3 -5 8 -10 11 -10 2 0 4 5 4 10 0 6 -5 10 -11 10 -5 0
-7 -4 -4 -10z"/>
<path d="M1245 1260 c-3 -6 1 -7 9 -4 18 7 21 14 7 14 -6 0 -13 -4 -16 -10z"/>
<path d="M2025 1257 c-14 -11 -15 -16 -5 -22 9 -6 11 -4 5 5 -6 9 -4 12 7 8 9
-4 15 0 15 8 0 17 1 17 -22 1z"/>
<path d="M715 1240 c6 -10 4 -12 -11 -6 -15 6 -17 5 -6 -5 9 -9 15 -10 23 -2
8 8 7 13 -2 18 -8 6 -10 4 -4 -5z"/>
<path d="M1275 1240 c6 -10 3 -12 -11 -7 -18 7 -18 7 0 -8 11 -8 24 -15 29
-15 4 0 5 -5 1 -12 -5 -7 -3 -8 6 -3 10 6 10 11 -3 20 -9 7 -14 14 -11 17 3 4
0 9 -7 14 -8 5 -10 3 -4 -6z"/>
<path d="M1706 1225 c-11 -8 -15 -15 -9 -15 6 0 16 7 23 15 16 19 11 19 -14 0z"/>
<path d="M1866 1224 c-9 -24 -2 -26 12 -4 7 11 8 20 3 20 -5 0 -12 -7 -15 -16z"/>
<path d="M756 1214 c-11 -8 -16 -14 -10 -14 13 0 39 18 34 24 -3 2 -14 -2 -24
-10z"/>
<path d="M1070 1221 c0 -6 4 -13 10 -16 6 -3 7 1 4 9 -7 18 -14 21 -14 7z"/>
<path d="M1104 1219 c-5 -8 -3 -9 6 -4 7 4 16 2 22 -6 8 -12 9 -12 6 0 -6 20
-24 25 -34 10z"/>
<path d="M1160 1215 c-7 -9 -11 -17 -9 -20 3 -2 10 5 17 15 14 24 10 26 -8 5z"/>
<path d="M1215 1219 c-6 -8 -4 -10 5 -4 10 6 12 4 6 -11 -6 -15 -5 -17 5 -6 9
9 10 15 2 23 -8 8 -13 7 -18 -2z"/>
<path d="M1746 1215 c4 -8 11 -15 16 -15 6 0 5 6 -2 15 -7 8 -14 15 -16 15 -2
0 -1 -7 2 -15z"/>
<path d="M1816 1211 c-4 -5 -1 -13 5 -17 8 -4 9 -3 5 4 -4 7 -3 12 3 12 5 0
12 -5 14 -10 3 -6 4 -5 3 2 -3 16 -23 22 -30 9z"/>
<path d="M1913 1205 c0 -8 4 -12 9 -9 5 3 6 10 3 15 -9 13 -12 11 -12 -6z"/>
<path d="M867 1193 c3 -7 6 -13 8 -13 2 0 5 6 8 13 3 8 -1 14 -8 14 -7 0 -11
-6 -8 -14z"/>
<path d="M1174 1199 c-4 -7 -3 -9 4 -5 5 3 12 0 15 -6 2 -7 7 -10 11 -7 4 3 0
12 -8 18 -11 9 -16 9 -22 0z"/>
<path d="M1308 1188 c-10 -10 -14 -18 -9 -18 10 0 36 29 30 34 -2 1 -12 -6
-21 -16z"/>
<path d="M1660 1206 c0 -2 7 -7 16 -10 8 -3 12 -2 9 4 -6 10 -25 14 -25 6z"/>
<path d="M915 1190 c-4 -6 -11 -8 -16 -5 -5 4 -9 1 -9 -4 0 -15 11 -13 34 4
11 8 15 15 9 15 -7 0 -15 -5 -18 -10z"/>
<path d="M995 1190 c-8 -13 3 -30 18 -30 7 0 6 4 -3 10 -13 9 -13 11 0 20 9 6
10 10 3 10 -6 0 -15 -4 -18 -10z"/>
<path d="M1102 1180 c0 -14 2 -19 5 -12 2 6 2 18 0 25 -3 6 -5 1 -5 -13z"/>
<path d="M1710 1193 c5 -2 8 -9 5 -13 -3 -5 -1 -11 4 -14 5 -4 8 2 7 11 -2 9
-8 18 -15 19 -6 1 -7 0 -1 -3z"/>
<path d="M730 1186 c0 -2 7 -7 16 -10 8 -3 12 -2 9 4 -6 10 -25 14 -25 6z"/>
<path d="M813 1175 c0 -7 6 -11 14 -8 7 3 13 6 13 8 0 2 -6 5 -13 8 -8 3 -14
-1 -14 -8z"/>
<path d="M1131 1174 c0 -11 3 -14 6 -6 3 7 2 16 -1 19 -3 4 -6 -2 -5 -13z"/>
<path d="M1236 1175 c-11 -8 -15 -15 -9 -15 7 0 15 5 18 10 4 6 11 8 16 5 5
-4 9 -1 9 4 0 15 -11 13 -34 -4z"/>
<path d="M1354 1179 c-4 -7 -3 -9 4 -5 5 3 13 0 15 -6 4 -9 6 -10 6 -1 1 17
-16 25 -25 12z"/>
<path d="M1645 1179 c-11 -16 -1 -19 13 -3 7 8 8 14 3 14 -5 0 -13 -5 -16 -11z"/>
<path d="M1797 1176 c-4 -11 -1 -13 10 -9 12 5 14 3 8 -7 -5 -9 -4 -11 4 -6 9
6 9 11 0 22 -14 17 -16 17 -22 0z"/>
<path d="M1884 1179 c-3 -6 -1 -16 5 -22 9 -9 10 -7 5 7 -6 15 -4 17 6 11 9
-5 11 -4 6 3 -9 15 -13 15 -22 1z"/>
<path d="M1930 1186 c0 -2 7 -7 16 -10 8 -3 12 -2 9 4 -6 10 -25 14 -25 6z"/>
<path d="M1035 1170 c-3 -5 -1 -10 4 -10 6 0 11 5 11 10 0 6 -2 10 -4 10 -3 0
-8 -4 -11 -10z"/>
<path d="M790 1163 c0 -6 8 -17 18 -24 16 -13 16 -13 2 6 -8 11 -16 22 -17 24
-2 2 -3 0 -3 -6z"/>
<path d="M922 1161 c-10 -6 -10 -10 3 -21 13 -11 14 -10 9 5 -6 14 -4 16 6 10
9 -5 11 -4 6 3 -8 14 -7 14 -24 3z"/>
<path d="M1596 1162 c-2 -4 2 -16 10 -27 8 -10 14 -14 14 -8 0 7 -5 15 -10 18
-6 4 -8 11 -5 16 4 5 4 9 1 9 -3 0 -7 -3 -10 -8z"/>
<path d="M1680 1155 c-7 -9 -8 -15 -2 -15 5 0 12 7 16 15 3 8 4 15 2 15 -2 0
-9 -7 -16 -15z"/>
<path d="M1831 1147 c-13 -21 -12 -21 5 -5 10 10 16 20 13 22 -3 3 -11 -5 -18
-17z"/>
<path d="M1075 1150 c-4 -6 -11 -8 -16 -5 -5 4 -9 1 -9 -4 0 -16 16 -13 30 4
7 8 10 15 7 15 -3 0 -9 -5 -12 -10z"/>
<path d="M1266 1144 c-5 -14 -4 -15 9 -4 17 14 19 20 6 20 -5 0 -12 -7 -15
-16z"/>
<path d="M1316 1146 c10 -8 21 -12 24 -10 5 6 -21 24 -34 24 -6 0 -1 -6 10
-14z"/>
<path d="M1402 1144 c10 -10 20 -16 22 -13 3 3 -5 11 -17 18 -21 13 -21 12 -5
-5z"/>
<path d="M860 1140 c8 -5 20 -10 25 -10 6 0 3 5 -5 10 -8 5 -19 10 -25 10 -5
0 -3 -5 5 -10z"/>
<path d="M996 1133 c-6 -14 -5 -15 5 -6 7 7 10 15 7 18 -3 3 -9 -2 -12 -12z"/>
<path d="M1106 1138 c3 -4 9 -8 15 -8 5 0 9 4 9 8 0 5 -7 9 -15 9 -8 0 -12 -4
-9 -9z"/>
<path d="M1170 1140 c0 -5 5 -10 10 -10 6 0 10 5 10 10 0 6 -4 10 -10 10 -5 0
-10 -4 -10 -10z"/>
<path d="M1211 1147 c2 -1 13 -9 24 -17 19 -14 19 -14 6 3 -7 9 -18 17 -24 17
-6 0 -8 -1 -6 -3z"/>
<path d="M1359 1133 c-13 -16 -12 -17 4 -4 16 13 21 21 13 21 -2 0 -10 -8 -17
-17z"/>
<path d="M1640 1140 c-9 -6 -10 -10 -3 -10 6 0 15 5 18 10 8 12 4 12 -15 0z"/>
<path d="M1722 1138 c-15 -15 -15 -28 0 -28 6 0 8 3 5 7 -4 3 -2 12 4 20 14
16 7 17 -9 1z"/>
<path d="M1770 1139 c0 -5 4 -8 9 -4 6 3 14 -3 20 -12 6 -10 11 -13 11 -7 0
12 -20 34 -32 34 -4 0 -8 -5 -8 -11z"/>
<path d="M955 1129 c-11 -16 -1 -19 13 -3 7 8 8 14 3 14 -5 0 -13 -5 -16 -11z"/>
<path d="M1556 1127 c3 -10 9 -15 12 -12 3 3 0 11 -7 18 -10 9 -11 8 -5 -6z"/>
<path d="M1856 1131 c-4 -5 3 -7 14 -4 23 6 26 13 6 13 -8 0 -17 -4 -20 -9z"/>
<path d="M820 1120 c-18 -12 -2 -12 25 0 13 6 15 9 5 9 -8 0 -22 -4 -30 -9z"/>
<path d="M1216 1118 c5 -7 2 -9 -7 -6 -10 4 -15 -1 -15 -13 0 -17 2 -17 18 -2
15 14 16 33 2 33 -3 0 -2 -5 2 -12z"/>
<path d="M1667 1114 c4 -11 3 -15 -4 -11 -13 8 -11 -19 2 -30 4 -4 5 -2 1 5
-4 6 -2 12 3 12 14 0 14 27 1 35 -6 4 -7 -1 -3 -11z"/>
<path d="M930 1112 c0 -7 -5 -10 -12 -6 -7 4 -8 3 -4 -5 4 -6 12 -9 17 -6 5 4
9 1 9 -6 0 -7 3 -10 6 -6 3 3 1 14 -5 24 -6 11 -11 13 -11 5z"/>
<path d="M1017 1105 c3 -8 9 -12 14 -9 12 7 11 11 -5 17 -10 4 -13 1 -9 -8z"/>
<path d="M1084 1104 c-10 -8 -14 -13 -7 -10 6 4 13 1 15 -6 3 -7 7 -2 10 10 7
26 7 26 -18 6z"/>
<path d="M1378 1109 c15 -16 16 -33 0 -23 -7 4 -8 3 -4 -5 4 -6 12 -9 17 -6
15 10 10 32 -8 40 -15 5 -16 4 -5 -6z"/>
<path d="M1446 1104 c-19 -18 -21 -34 -4 -34 6 0 8 3 5 7 -4 3 0 15 10 25 20
22 11 24 -11 2z"/>
<path d="M1576 1104 c-4 -9 -4 -19 -1 -22 3 -3 5 0 5 7 0 7 4 9 10 6 6 -3 7 1
4 9 -8 20 -10 20 -18 0z"/>
<path d="M1760 1115 c0 -5 5 -17 10 -25 5 -8 10 -10 10 -5 0 6 -5 17 -10 25
-5 8 -10 11 -10 5z"/>
<path d="M857 1096 c-4 -11 -1 -13 10 -9 12 5 14 3 8 -7 -5 -9 -4 -11 4 -6 9
6 9 11 0 22 -14 17 -16 17 -22 0z"/>
<path d="M1153 1095 c0 -7 6 -11 14 -8 7 3 13 6 13 8 0 2 -6 5 -13 8 -8 3 -14
-1 -14 -8z"/>
<path d="M1732 1101 c-11 -7 -11 -9 0 -14 9 -3 15 1 15 9 0 8 -1 14 -1 14 -1
0 -7 -4 -14 -9z"/>
<path d="M1274 1092 c3 -5 0 -13 -6 -15 -10 -4 -10 -6 0 -6 7 -1 10 -6 6 -12
-4 -8 0 -8 15 0 25 14 28 23 4 14 -10 -4 -14 -2 -9 5 3 6 1 14 -5 18 -7 4 -9
3 -5 -4z"/>
<path d="M956 1075 c-9 -26 -7 -32 5 -12 6 10 9 21 6 23 -2 3 -7 -2 -11 -11z"/>
<path d="M1233 1075 c0 -8 4 -12 9 -9 5 3 6 10 3 15 -9 13 -12 11 -12 -6z"/>
<path d="M1350 1081 c0 -6 4 -13 10 -16 6 -3 7 1 4 9 -7 18 -14 21 -14 7z"/>
<path d="M1515 1081 c-9 -15 15 -25 28 -12 9 9 7 10 -7 5 -13 -5 -17 -4 -12 4
4 7 5 12 2 12 -3 0 -7 -4 -11 -9z"/>
<path d="M1317 1057 c-9 -11 -17 -17 -17 -12 0 5 -7 -1 -16 -13 -15 -21 -34
-22 -34 -1 0 6 5 7 12 3 7 -4 8 -3 4 5 -11 17 -28 2 -21 -19 7 -23 -38 -50
-78 -46 -28 3 -97 50 -97 67 0 5 -7 9 -16 9 -8 0 -12 5 -9 10 8 13 -1 13 -26
0 -10 -6 -19 -18 -19 -28 1 -25 115 -104 160 -110 14 -2 26 -8 28 -13 2 -4 13
1 25 12 12 11 28 17 36 14 9 -3 12 -3 8 1 -3 4 21 27 55 50 34 24 58 44 52 44
-5 0 -2 5 6 10 13 8 13 10 -2 10 -9 0 -21 6 -25 14 -7 12 -11 11 -26 -7z"/>
<path d="M1642 1064 c10 -10 20 -16 22 -13 3 3 -5 11 -17 18 -21 13 -21 12 -5
-5z"/>
<path d="M976 1055 c-3 -8 0 -17 6 -21 6 -4 8 -3 4 4 -3 5 -1 12 6 14 8 3 9 6
1 11 -6 4 -13 0 -17 -8z"/>
<path d="M1084 1059 c-3 -6 -1 -16 5 -22 9 -9 10 -7 5 7 -6 15 -4 17 6 11 9
-5 11 -4 6 3 -9 15 -13 15 -22 1z"/>
<path d="M1151 1053 c7 -12 15 -20 18 -17 3 2 -3 12 -13 22 -17 16 -18 16 -5
-5z"/>
<path d="M1185 1059 c-4 -6 -5 -12 -2 -15 2 -3 7 2 10 11 7 17 1 20 -8 4z"/>
<path d="M1460 1061 c0 -9 30 -24 36 -18 2 1 -6 8 -16 15 -11 7 -20 8 -20 3z"/>
<path d="M1564 1059 c-3 -6 -1 -16 5 -22 9 -9 10 -7 5 7 -6 15 -4 17 6 11 9
-5 11 -4 6 3 -9 15 -13 15 -22 1z"/>
<path d="M1605 1059 c-4 -6 -5 -12 -2 -15 2 -3 7 2 10 11 7 17 1 20 -8 4z"/>
<path d="M1685 1060 c-3 -6 1 -7 9 -4 18 7 21 14 7 14 -6 0 -13 -4 -16 -10z"/>
<path d="M916 1029 c17 -19 34 -17 34 4 0 7 -4 6 -10 -3 -8 -13 -14 -8 -12 11
1 3 -6 6 -14 6 -12 0 -11 -4 2 -18z"/>
<path d="M1117 1032 c-15 -16 -15 -18 2 -18 12 0 17 5 13 15 -4 10 -1 12 8 6
9 -5 11 -4 6 3 -9 15 -10 15 -29 -6z"/>
<path d="M1693 1037 c-3 -6 -1 -7 5 -3 5 3 12 1 14 -6 3 -8 6 -7 10 3 7 17
-19 22 -29 6z"/>
<path d="M1635 1030 c-4 -6 -11 -8 -16 -5 -5 4 -9 1 -9 -4 0 -15 11 -13 34 4
11 8 15 15 9 15 -7 0 -15 -5 -18 -10z"/>
<path d="M1221 1017 c-1 -11 -6 -15 -13 -11 -7 5 -8 3 -3 -5 10 -16 29 2 22
21 -4 8 -6 7 -6 -5z"/>
<path d="M1484 1019 c-3 -6 -2 -15 4 -21 6 -6 12 -6 17 3 5 8 4 10 -3 5 -7 -4
-12 -3 -12 3 0 5 6 12 13 14 9 4 9 6 0 6 -6 1 -15 -4 -19 -10z"/>
<path d="M1531 1027 c2 -1 13 -9 24 -17 19 -14 19 -14 6 3 -7 9 -18 17 -24 17
-6 0 -8 -1 -6 -3z"/>
<path d="M1157 1013 c-10 -9 -9 -23 1 -23 5 0 9 7 9 15 0 17 -1 18 -10 8z"/>
<path d="M1395 1010 c-4 -6 1 -7 11 -3 13 5 15 3 9 -7 -5 -9 -4 -11 4 -6 6 4
9 12 6 17 -8 12 -22 12 -30 -1z"/>
<path d="M1431 987 c-13 -21 -12 -21 5 -5 10 10 16 20 13 22 -3 3 -11 -5 -18
-17z"/>
<path d="M1521 996 c-9 -10 -8 -15 3 -19 11 -4 13 -1 9 10 -5 12 -3 14 7 8 9
-5 11 -4 6 3 -9 15 -11 15 -25 -2z"/>
<path d="M1643 995 c-3 -9 -3 -18 -1 -21 3 -3 8 4 11 16 6 23 -1 27 -10 5z"/>
<path d="M1320 980 c-9 -6 -10 -10 -3 -10 6 0 15 5 18 10 8 12 4 12 -15 0z"/>
<path d="M1370 979 c0 -5 4 -8 9 -4 6 3 14 -3 20 -12 6 -10 11 -13 11 -7 0 12
-20 34 -32 34 -4 0 -8 -5 -8 -11z"/>
<path d="M1562 978 c-15 -15 -15 -28 -1 -28 5 0 8 4 4 9 -3 6 3 14 12 20 10 6
13 11 8 11 -6 0 -16 -5 -23 -12z"/>
<path d="M1608 973 c6 -2 9 -10 6 -15 -4 -7 -2 -8 5 -4 13 9 5 26 -12 25 -9 0
-8 -2 1 -6z"/>
<path d="M1036 961 c-3 -5 0 -14 8 -20 10 -9 15 -8 19 3 4 11 1 13 -10 9 -11
-4 -14 -2 -9 5 4 7 5 12 2 12 -3 0 -7 -4 -10 -9z"/>
<path d="M1361 944 c0 -11 3 -14 6 -6 3 7 2 16 -1 19 -3 4 -6 -2 -5 -13z"/>
<path d="M1418 948 c-7 -17 15 -19 29 -3 4 4 3 5 -4 2 -6 -4 -13 -2 -15 5 -3
8 -6 6 -10 -4z"/>
<path d="M1270 939 c0 -5 5 -7 10 -4 6 3 10 8 10 11 0 2 -4 4 -10 4 -5 0 -10
-5 -10 -11z"/>
<path d="M1324 935 c-18 -15 -18 -15 0 -8 15 5 17 3 11 -8 -5 -8 -4 -11 0 -6
8 7 17 37 11 37 -1 0 -11 -7 -22 -15z"/>
<path d="M1480 935 c-11 -13 -10 -14 4 -9 9 3 16 10 16 15 0 13 -6 11 -20 -6z"/>
<path d="M1395 920 c6 -10 4 -12 -11 -6 -15 6 -17 5 -6 -5 9 -9 15 -10 23 -2
8 8 7 13 -2 18 -8 6 -10 4 -4 -5z"/>
<path d="M1230 905 c0 -8 2 -15 4 -15 2 0 6 7 10 15 3 8 1 15 -4 15 -6 0 -10
-7 -10 -15z"/>
<path d="M1430 913 c5 -2 8 -9 4 -14 -3 -5 0 -9 6 -9 15 0 7 23 -8 26 -7 1 -8
0 -2 -3z"/>
<path d="M1135 900 c3 -5 8 -10 11 -10 2 0 4 5 4 10 0 6 -5 10 -11 10 -5 0 -7
-4 -4 -10z"/>
<path d="M1290 899 c0 -5 4 -8 9 -4 6 3 14 -3 20 -12 6 -10 11 -13 11 -7 0 12
-20 34 -32 34 -4 0 -8 -5 -8 -11z"/>
<path d="M1405 879 c-4 -6 -5 -12 -2 -15 2 -3 7 2 10 11 7 17 1 20 -8 4z"/>
<path d="M1212 871 c-11 -6 -10 -10 4 -15 9 -3 19 -4 22 -1 3 3 0 5 -7 5 -7 0
-9 5 -6 10 7 12 4 12 -13 1z"/>
<path d="M1270 876 c0 -2 7 -9 15 -16 13 -11 14 -10 9 4 -5 14 -24 23 -24 12z"/>
</g>
</svg>
